<?xml version="1.0" encoding="UTF-8" standalone="no"?>
<!-- Created with Inkscape (http://www.inkscape.org/) -->

<svg
   width="175mm"
   height="110mm"
   viewBox="0 0 175 110"
   version="1.1"
   id="svg5"
   sodipodi:docname="count_tables_with_target_sum.svg"
   inkscape:version="1.2.2 (b0a8486541, 2022-12-01)"
   xmlns:inkscape="http://www.inkscape.org/namespaces/inkscape"
   xmlns:sodipodi="http://sodipodi.sourceforge.net/DTD/sodipodi-0.dtd"
   xmlns="http://www.w3.org/2000/svg"
   xmlns:svg="http://www.w3.org/2000/svg">
  <sodipodi:namedview
     id="namedview7"
     pagecolor="#ffffff"
     bordercolor="#000000"
     borderopacity="0.25"
     inkscape:showpageshadow="2"
     inkscape:pageopacity="0.0"
     inkscape:pagecheckerboard="0"
     inkscape:deskcolor="#d1d1d1"
     inkscape:document-units="mm"
     showgrid="false"
     inkscape:zoom="0.98898724"
     inkscape:cx="348.84171"
     inkscape:cy="294.74597"
     inkscape:window-width="1854"
     inkscape:window-height="1011"
     inkscape:window-x="0"
     inkscape:window-y="0"
     inkscape:window-maximized="1"
     inkscape:current-layer="layer1" />
  <defs
     id="defs2">
    <clipPath
       id="clipPath3482">
      <path
         clip-rule="nonzero"
         d="M 13,2 H 31 V 23.203125 H 13 Z m 0,0"
         id="path2876" />
    </clipPath>
  </defs>
  <g
     inkscape:label="Layer 1"
     inkscape:groupmode="layer"
     id="layer1">
    <rect
       style="fill:#9facc1;fill-opacity:0.970721;stroke:#ffffff;stroke-width:0.635856;stroke-linecap:round;stroke-miterlimit:0;stroke-opacity:1"
       id="rect234"
       width="28.173975"
       height="16.886036"
       x="17.398766"
       y="17.508209"
       ry="0" />
    <rect
       style="fill:#9facc1;fill-opacity:0.970721;stroke:#ffffff;stroke-width:0.635856;stroke-linecap:round;stroke-miterlimit:0;stroke-opacity:1"
       id="rect234-3"
       width="28.173975"
       height="16.886036"
       x="45.572742"
       y="17.508209"
       ry="0" />
    <rect
       style="fill:#9facc1;fill-opacity:0.970721;stroke:#ffffff;stroke-width:0.635856;stroke-linecap:round;stroke-miterlimit:0;stroke-opacity:1"
       id="rect234-6"
       width="28.173975"
       height="16.886036"
       x="73.746704"
       y="17.508209"
       ry="0" />
    <rect
       style="fill:#9facc1;fill-opacity:0.970721;stroke:#ffffff;stroke-width:0.635856;stroke-linecap:round;stroke-miterlimit:0;stroke-opacity:1"
       id="rect234-3-7"
       width="28.173975"
       height="16.886036"
       x="101.92068"
       y="17.508209"
       ry="0" />
    <rect
       style="fill:#9facc1;fill-opacity:0.970721;stroke:#ffffff;stroke-width:0.635856;stroke-linecap:round;stroke-miterlimit:0;stroke-opacity:1"
       id="rect234-3-7-5"
       width="28.173975"
       height="16.886036"
       x="130.09468"
       y="17.508209"
       ry="0" />
    <rect
       style="fill:#9facc1;fill-opacity:0.970721;stroke:#ffffff;stroke-width:0.635856;stroke-linecap:round;stroke-miterlimit:0;stroke-opacity:1"
       id="rect234-35"
       width="28.173975"
       height="16.886036"
       x="17.398766"
       y="34.394249"
       ry="0" />
    <rect
       style="fill:#9facc1;fill-opacity:0.970721;stroke:#ffffff;stroke-width:0.635856;stroke-linecap:round;stroke-miterlimit:0;stroke-opacity:1"
       id="rect234-3-6"
       width="28.173975"
       height="16.886036"
       x="45.572742"
       y="34.394249"
       ry="0" />
    <rect
       style="fill:#9facc1;fill-opacity:0.970721;stroke:#ffffff;stroke-width:0.635856;stroke-linecap:round;stroke-miterlimit:0;stroke-opacity:1"
       id="rect234-6-2"
       width="28.173975"
       height="16.886036"
       x="73.746704"
       y="34.394249"
       ry="0" />
    <rect
       style="fill:#9facc1;fill-opacity:0.970721;stroke:#ffffff;stroke-width:0.635856;stroke-linecap:round;stroke-miterlimit:0;stroke-opacity:1"
       id="rect234-3-7-9"
       width="28.173975"
       height="16.886036"
       x="101.92068"
       y="34.394249"
       ry="0" />
    <rect
       style="fill:#9facc1;fill-opacity:0.970721;stroke:#ffffff;stroke-width:0.635856;stroke-linecap:round;stroke-miterlimit:0;stroke-opacity:1"
       id="rect234-3-7-5-1"
       width="28.173975"
       height="16.886036"
       x="130.09465"
       y="34.394249"
       ry="0" />
    <rect
       style="fill:#9facc1;fill-opacity:0.970721;stroke:#ffffff;stroke-width:0.635856;stroke-linecap:round;stroke-miterlimit:0;stroke-opacity:1"
       id="rect234-2"
       width="28.173975"
       height="16.886036"
       x="17.398766"
       y="51.280281"
       ry="0" />
    <rect
       style="fill:#9facc1;fill-opacity:0.970721;stroke:#ffffff;stroke-width:0.635856;stroke-linecap:round;stroke-miterlimit:0;stroke-opacity:1"
       id="rect234-3-70"
       width="28.173975"
       height="16.886036"
       x="45.572742"
       y="51.280281"
       ry="0" />
    <rect
       style="fill:#9facc1;fill-opacity:0.970721;stroke:#ffffff;stroke-width:0.635856;stroke-linecap:round;stroke-miterlimit:0;stroke-opacity:1"
       id="rect234-6-9"
       width="28.173975"
       height="16.886036"
       x="73.746704"
       y="51.280281"
       ry="0" />
    <rect
       style="fill:#9facc1;fill-opacity:0.970721;stroke:#ffffff;stroke-width:0.635856;stroke-linecap:round;stroke-miterlimit:0;stroke-opacity:1"
       id="rect234-3-7-3"
       width="28.173975"
       height="16.886036"
       x="101.92068"
       y="51.280281"
       ry="0" />
    <rect
       style="fill:#9facc1;fill-opacity:0.970721;stroke:#ffffff;stroke-width:0.635856;stroke-linecap:round;stroke-miterlimit:0;stroke-opacity:1"
       id="rect234-3-7-5-6"
       width="28.173975"
       height="16.886036"
       x="130.09468"
       y="51.280281"
       ry="0" />
    <rect
       style="fill:#9facc1;fill-opacity:0.970721;stroke:#ffffff;stroke-width:0.635856;stroke-linecap:round;stroke-miterlimit:0;stroke-opacity:1"
       id="rect234-35-0"
       width="28.173975"
       height="16.886036"
       x="17.398766"
       y="68.166313"
       ry="0" />
    <rect
       style="fill:#9facc1;fill-opacity:0.970721;stroke:#ffffff;stroke-width:0.635856;stroke-linecap:round;stroke-miterlimit:0;stroke-opacity:1"
       id="rect234-3-6-6"
       width="28.173975"
       height="16.886036"
       x="45.572742"
       y="68.166313"
       ry="0" />
    <rect
       style="fill:#9facc1;fill-opacity:0.970721;stroke:#ffffff;stroke-width:0.635856;stroke-linecap:round;stroke-miterlimit:0;stroke-opacity:1"
       id="rect234-6-2-2"
       width="28.173975"
       height="16.886036"
       x="73.746704"
       y="68.166313"
       ry="0" />
    <rect
       style="fill:#9facc1;fill-opacity:0.970721;stroke:#ffffff;stroke-width:0.635856;stroke-linecap:round;stroke-miterlimit:0;stroke-opacity:1"
       id="rect234-3-7-9-6"
       width="28.173975"
       height="16.886036"
       x="101.92068"
       y="68.166313"
       ry="0" />
    <rect
       style="fill:#9facc1;fill-opacity:0.970721;stroke:#ffffff;stroke-width:0.635856;stroke-linecap:round;stroke-miterlimit:0;stroke-opacity:1"
       id="rect234-3-7-5-1-1"
       width="28.173975"
       height="16.886036"
       x="130.09468"
       y="68.166313"
       ry="0" />
    <rect
       style="fill:#9facc1;fill-opacity:0.970721;stroke:#ffffff;stroke-width:0.635856;stroke-linecap:round;stroke-miterlimit:0;stroke-opacity:1"
       id="rect234-35-0-8"
       width="28.173975"
       height="16.886036"
       x="17.398758"
       y="85.052345"
       ry="0" />
    <rect
       style="fill:#9facc1;fill-opacity:0.970721;stroke:#ffffff;stroke-width:0.635856;stroke-linecap:round;stroke-miterlimit:0;stroke-opacity:1"
       id="rect234-3-6-6-7"
       width="28.173975"
       height="16.886036"
       x="45.572731"
       y="85.052345"
       ry="0" />
    <rect
       style="fill:#9facc1;fill-opacity:0.970721;stroke:#ffffff;stroke-width:0.635856;stroke-linecap:round;stroke-miterlimit:0;stroke-opacity:1"
       id="rect234-6-2-2-9"
       width="28.173975"
       height="16.886036"
       x="73.746704"
       y="85.052345"
       ry="0" />
    <rect
       style="fill:#9facc1;fill-opacity:0.970721;stroke:#ffffff;stroke-width:0.635856;stroke-linecap:round;stroke-miterlimit:0;stroke-opacity:1"
       id="rect234-3-7-9-6-2"
       width="28.173975"
       height="16.886036"
       x="101.92068"
       y="85.052345"
       ry="0" />
    <rect
       style="fill:#9facc1;fill-opacity:0.970721;stroke:#ffffff;stroke-width:0.635856;stroke-linecap:round;stroke-miterlimit:0;stroke-opacity:1"
       id="rect234-3-7-5-1-1-0"
       width="28.173975"
       height="16.886036"
       x="130.09468"
       y="85.052345"
       ry="0" />
    <g
       inkscape:label=""
       transform="translate(82.262672,72.472477)"
       id="g1726">
      <g
         fill="#000000"
         fill-opacity="1"
         id="g20"
         transform="matrix(0.352778,0,0,0.352778,-0.347266,0.0881504)">
        <g
           id="use18"
           transform="translate(0,10.672)">
          <path
             d="m 7.453125,-2.953125 c -0.125,0.421875 -0.125,0.46875 -0.46875,0.953125 -0.546875,0.6875 -1.625,1.75 -2.796875,1.75 -1.015625,0 -1.578125,-0.921875 -1.578125,-2.375 0,-1.359375 0.765625,-4.140625 1.234375,-5.1875 0.84375,-1.734375 2,-2.625 2.96875,-2.625 1.640625,0 1.953125,2.03125 1.953125,2.234375 0,0.03125 -0.0625,0.34375 -0.09375,0.390625 z m 1.59375,-6.34375 c -0.28125,-0.640625 -0.9375,-1.625 -2.234375,-1.625 -2.796875,0 -5.828125,3.609375 -5.828125,7.28125 0,2.453125 1.4375,3.890625 3.125,3.890625 1.375,0 2.53125,-1.0625 3.21875,-1.890625 C 7.578125,-0.171875 8.75,0.25 9.484375,0.25 c 0.75,0 1.34375,-0.453125 1.796875,-1.34375 0.390625,-0.84375 0.734375,-2.34375 0.734375,-2.453125 0,-0.125 -0.09375,-0.21875 -0.25,-0.21875 -0.21875,0 -0.25,0.125 -0.34375,0.5 C 11.046875,-1.8125 10.578125,-0.25 9.5625,-0.25 c -0.71875,0 -0.765625,-0.640625 -0.765625,-1.140625 0,-0.5625 0.078125,-0.84375 0.296875,-1.8125 0.171875,-0.609375 0.296875,-1.15625 0.5,-1.875 0.90625,-3.71875 1.140625,-4.609375 1.140625,-4.765625 0,-0.34375 -0.28125,-0.609375 -0.640625,-0.609375 -0.796875,0 -1,0.859375 -1.046875,1.15625 z m 0,0"
             id="path34" />
        </g>
      </g>
      <g
         clip-path="url(#clipPath3482)"
         id="g28"
         transform="matrix(0.352778,0,0,0.352778,-0.347266,0.0881504)">
        <g
           fill="#000000"
           fill-opacity="1"
           id="g26">
          <g
             id="use22"
             transform="translate(12.741,18.384001)">
            <path
               d="m 7.015625,-3.546875 c 0,-0.125 -0.109375,-0.21875 -0.25,-0.21875 -0.21875,0 -0.25,0.078125 -0.375,0.5 C 5.75,-1.015625 4.734375,-0.25 3.921875,-0.25 c -0.296875,0 -0.65625,-0.078125 -0.65625,-0.8125 0,-0.671875 0.296875,-1.421875 0.578125,-2.15625 l 1.734375,-4.609375 c 0.078125,-0.203125 0.25,-0.640625 0.25,-1.125 0,-1.03125 -0.75,-1.96875 -1.96875,-1.96875 -2.265625,0 -3.1875,3.59375 -3.1875,3.78125 0,0.109375 0.09375,0.234375 0.265625,0.234375 0.234375,0 0.25,-0.109375 0.34375,-0.453125 0.609375,-2.078125 1.546875,-3.078125 2.515625,-3.078125 0.21875,0 0.640625,0.03125 0.640625,0.828125 0,0.640625 -0.328125,1.453125 -0.515625,2 L 2.1875,-3 c -0.15625,0.390625 -0.296875,0.796875 -0.296875,1.234375 0,1.125 0.765625,2.015625 1.953125,2.015625 2.28125,0 3.171875,-3.625 3.171875,-3.796875 z M 6.8125,-15.46875 c 0,-0.359375 -0.296875,-0.8125 -0.84375,-0.8125 -0.5625,0 -1.203125,0.546875 -1.203125,1.1875 0,0.625 0.515625,0.8125 0.8125,0.8125 0.671875,0 1.234375,-0.640625 1.234375,-1.1875 z m 0,0"
               id="path38" />
          </g>
          <g
             id="use24"
             transform="translate(21.019892,18.384001)">
            <path
               d="m 8.671875,-7.859375 c 0.09375,-0.390625 0.09375,-0.734375 0.09375,-0.84375 0,-1.4375 -1.0625,-2.21875 -2.171875,-2.21875 -2.5,0 -3.84375,3.609375 -3.84375,3.78125 0,0.125 0.09375,0.234375 0.25,0.234375 0.203125,0 0.21875,-0.109375 0.34375,-0.359375 1,-2.40625 2.234375,-3.171875 3.171875,-3.171875 0.515625,0 0.796875,0.28125 0.796875,1.140625 0,0.59375 -0.078125,0.84375 -0.171875,1.296875 L 4.78125,1.34375 c -0.46875,1.828125 -1.640625,3.21875 -3,3.21875 -0.09375,0 -0.609375,0 -1.09375,-0.25 0.59375,-0.125 1.078125,-0.59375 1.078125,-1.1875 0,-0.40625 -0.296875,-0.796875 -0.84375,-0.796875 -0.65625,0 -1.25,0.546875 -1.25,1.296875 0,1.015625 1.09375,1.4375 2.109375,1.4375 C 3.5,5.0625 5.75,3.796875 6.375,1.3125 Z M 9.6875,-15.46875 c 0,-0.609375 -0.515625,-0.8125 -0.8125,-0.8125 -0.671875,0 -1.25,0.640625 -1.25,1.1875 0,0.375 0.3125,0.8125 0.84375,0.8125 0.578125,0 1.21875,-0.53125 1.21875,-1.1875 z m 0,0"
               id="path42" />
          </g>
        </g>
      </g>
    </g>
    <path
       style="fill:#dc2e00;fill-opacity:0.970721;stroke:#cf15dc;stroke-width:1.522;stroke-linecap:round;stroke-miterlimit:0;stroke-dasharray:none;stroke-opacity:1"
       d="M 115.88446,18.850977 V 100.59562"
       id="path2159" />
    <path
       style="fill:#dc2e00;fill-opacity:0.970721;stroke:#cf15dc;stroke-width:1.522;stroke-linecap:round;stroke-miterlimit:0;stroke-dasharray:none;stroke-opacity:1"
       d="M 59.659733,18.850977 V 100.59563"
       id="path2159-2" />
    <path
       style="fill:#dc2e00;fill-opacity:0.970721;stroke:#cf15dc;stroke-width:1.522;stroke-linecap:round;stroke-miterlimit:0;stroke-dasharray:none;stroke-opacity:1"
       d="M 18.616665,59.312787 H 157.05072"
       id="path4429" />
    <path
       style="fill:#dc2e00;fill-opacity:0.970721;stroke:#cf15dc;stroke-width:1.522;stroke-linecap:round;stroke-miterlimit:0;stroke-dasharray:none;stroke-opacity:1"
       d="M 18.288453,93.726647 H 156.72252"
       id="path4429-3" />
    <text
       xml:space="preserve"
       style="font-size:11.2889px;font-family:FreeMono;-inkscape-font-specification:FreeMono;fill:#dc2e00;fill-opacity:0.970721;stroke:#cf15dc;stroke-width:1.522;stroke-linecap:round;stroke-miterlimit:0;stroke-dasharray:none;stroke-opacity:1"
       x="27.694582"
       y="15.433114"
       id="text4539"><tspan
         sodipodi:role="line"
         id="tspan4537"
         style="fill:#000000;fill-opacity:0.970721;stroke:none;stroke-width:1.522;stroke-opacity:1"
         x="27.694582"
         y="15.433114">1</tspan></text>
    <text
       xml:space="preserve"
       style="font-size:11.2889px;font-family:FreeMono;-inkscape-font-specification:FreeMono;fill:#dc2e00;fill-opacity:0.970721;stroke:#cf15dc;stroke-width:1.522;stroke-linecap:round;stroke-miterlimit:0;stroke-dasharray:none;stroke-opacity:1"
       x="7.7565608"
       y="29.40564"
       id="text4539-1"><tspan
         sodipodi:role="line"
         id="tspan4537-06"
         style="fill:#000000;fill-opacity:0.970721;stroke:none;stroke-width:1.522;stroke-opacity:1"
         x="7.7565608"
         y="29.40564">1</tspan></text>
    <text
       xml:space="preserve"
       style="font-size:11.2889px;font-family:FreeMono;-inkscape-font-specification:FreeMono;fill:#dc2e00;fill-opacity:0.970721;stroke:#cf15dc;stroke-width:1.522;stroke-linecap:round;stroke-miterlimit:0;stroke-dasharray:none;stroke-opacity:1"
       x="84.878609"
       y="15.433114"
       id="text4539-8"><tspan
         sodipodi:role="line"
         id="tspan4537-4"
         style="fill:#000000;fill-opacity:0.970721;stroke:none;stroke-width:1.522;stroke-opacity:1"
         x="84.878609"
         y="15.433114">1</tspan></text>
    <text
       xml:space="preserve"
       style="font-size:11.2889px;font-family:FreeMono;-inkscape-font-specification:FreeMono;fill:#dc2e00;fill-opacity:0.970721;stroke:#000000;stroke-width:1.522;stroke-linecap:round;stroke-miterlimit:0;stroke-dasharray:none;stroke-opacity:1"
       x="55.708649"
       y="15.382318"
       id="text4645"><tspan
         sodipodi:role="line"
         id="tspan4643"
         style="fill:#000000;fill-opacity:1;stroke:none;stroke-width:1.522"
         x="55.708649"
         y="15.382318">0</tspan></text>
    <text
       xml:space="preserve"
       style="font-size:11.2889px;font-family:FreeMono;-inkscape-font-specification:FreeMono;fill:#dc2e00;fill-opacity:0.970721;stroke:#000000;stroke-width:1.522;stroke-linecap:round;stroke-miterlimit:0;stroke-dasharray:none;stroke-opacity:1"
       x="7.7565608"
       y="63.056435"
       id="text4645-1"><tspan
         sodipodi:role="line"
         id="tspan4643-5"
         style="fill:#000000;fill-opacity:1;stroke:none;stroke-width:1.522"
         x="7.7565608"
         y="63.056435">0</tspan></text>
    <text
       xml:space="preserve"
       style="font-size:11.2889px;font-family:FreeMono;-inkscape-font-specification:FreeMono;fill:#dc2e00;fill-opacity:0.970721;stroke:#000000;stroke-width:1.522;stroke-linecap:round;stroke-miterlimit:0;stroke-dasharray:none;stroke-opacity:1"
       x="114.04857"
       y="15.382318"
       id="text4645-3"><tspan
         sodipodi:role="line"
         id="tspan4643-6"
         style="fill:#000000;fill-opacity:1;stroke:none;stroke-width:1.522"
         x="114.04857"
         y="15.382318">0</tspan></text>
    <text
       xml:space="preserve"
       style="font-size:11.2889px;font-family:FreeMono;-inkscape-font-specification:FreeMono;fill:#dc2e00;fill-opacity:0.970721;stroke:#cf15dc;stroke-width:1.522;stroke-linecap:round;stroke-miterlimit:0;stroke-dasharray:none;stroke-opacity:1"
       x="142.06264"
       y="15.433114"
       id="text4539-5"><tspan
         sodipodi:role="line"
         id="tspan4537-0"
         style="fill:#000000;fill-opacity:0.970721;stroke:none;stroke-width:1.522;stroke-opacity:1"
         x="142.06264"
         y="15.433114">1</tspan></text>
    <text
       xml:space="preserve"
       style="font-size:11.2889px;font-family:FreeMono;-inkscape-font-specification:FreeMono;fill:#dc2e00;fill-opacity:0.970721;stroke:#cf15dc;stroke-width:1.522;stroke-linecap:round;stroke-miterlimit:0;stroke-dasharray:none;stroke-opacity:1"
       x="7.7565608"
       y="46.2257"
       id="text4539-3"><tspan
         sodipodi:role="line"
         id="tspan4537-2"
         style="fill:#000000;fill-opacity:0.970721;stroke:none;stroke-width:1.522;stroke-opacity:1"
         x="7.7565608"
         y="46.2257">1</tspan></text>
    <text
       xml:space="preserve"
       style="font-size:11.2889px;font-family:FreeMono;-inkscape-font-specification:FreeMono;fill:#dc2e00;fill-opacity:0.970721;stroke:#cf15dc;stroke-width:1.522;stroke-linecap:round;stroke-miterlimit:0;stroke-dasharray:none;stroke-opacity:1"
       x="7.7565608"
       y="80.063728"
       id="text4539-0"><tspan
         sodipodi:role="line"
         id="tspan4537-6"
         style="fill:#000000;fill-opacity:0.970721;stroke:none;stroke-width:1.522;stroke-opacity:1"
         x="7.7565608"
         y="80.063728">1</tspan></text>
    <text
       xml:space="preserve"
       style="font-size:11.2889px;font-family:FreeMono;-inkscape-font-specification:FreeMono;fill:#dc2e00;fill-opacity:0.970721;stroke:#000000;stroke-width:1.522;stroke-linecap:round;stroke-miterlimit:0;stroke-dasharray:none;stroke-opacity:1"
       x="7.7565608"
       y="96.197685"
       id="text4645-5"><tspan
         sodipodi:role="line"
         id="tspan4643-4"
         style="fill:#000000;fill-opacity:1;stroke:none;stroke-width:1.522"
         x="7.7565608"
         y="96.197685">0</tspan></text>
  </g>
</svg>
