<?xml version="1.0" encoding="UTF-8" standalone="no"?>
<!-- Created with Inkscape (http://www.inkscape.org/) -->

<svg
   width="160mm"
   height="140mm"
   viewBox="0 0 160 140"
   version="1.1"
   id="svg5"
   sodipodi:docname="count_tables.svg"
   inkscape:version="1.2.2 (b0a8486541, 2022-12-01)"
   xmlns:inkscape="http://www.inkscape.org/namespaces/inkscape"
   xmlns:sodipodi="http://sodipodi.sourceforge.net/DTD/sodipodi-0.dtd"
   xmlns="http://www.w3.org/2000/svg"
   xmlns:svg="http://www.w3.org/2000/svg">
  <sodipodi:namedview
     id="namedview7"
     pagecolor="#ffffff"
     bordercolor="#000000"
     borderopacity="0.25"
     inkscape:showpageshadow="2"
     inkscape:pageopacity="0.0"
     inkscape:pagecheckerboard="0"
     inkscape:deskcolor="#d1d1d1"
     inkscape:document-units="mm"
     showgrid="false"
     inkscape:zoom="0.98898724"
     inkscape:cx="495.45634"
     inkscape:cy="374.62566"
     inkscape:window-width="1854"
     inkscape:window-height="1011"
     inkscape:window-x="0"
     inkscape:window-y="0"
     inkscape:window-maximized="1"
     inkscape:current-layer="layer1" />
  <defs
     id="defs2">
    <clipPath
       id="clipPath9936">
      <path
         clip-rule="nonzero"
         d="M 73,24 H 98 V 45.910156 H 73 Z m 0,0"
         id="path8110" />
    </clipPath>
    <clipPath
       id="clipPath1493">
      <path
         clip-rule="nonzero"
         d="m 209,15 h 42.59766 V 27 H 209 Z m 0,0"
         id="path1454" />
    </clipPath>
  </defs>
  <g
     inkscape:label="Layer 1"
     inkscape:groupmode="layer"
     id="layer1">
    <rect
       style="fill:#6671b6;fill-opacity:1;stroke:#303060;stroke-width:2.5;stroke-linecap:square;stroke-miterlimit:5;stroke-dasharray:none;stroke-opacity:1"
       id="rect234"
       width="16.515215"
       height="11.414047"
       x="12.049227"
       y="10.979534" />
    <rect
       style="fill:#6671b6;fill-opacity:1;stroke:#303060;stroke-width:2.5;stroke-linecap:square;stroke-miterlimit:5;stroke-dasharray:none;stroke-opacity:1"
       id="rect234-3"
       width="16.515215"
       height="11.414047"
       x="28.564442"
       y="10.979534" />
    <rect
       style="fill:#6671b6;fill-opacity:1;stroke:#303060;stroke-width:2.5;stroke-linecap:square;stroke-miterlimit:5;stroke-dasharray:none;stroke-opacity:1"
       id="rect234-6"
       width="16.515215"
       height="11.414047"
       x="12.049229"
       y="22.393597" />
    <rect
       style="fill:#6671b6;fill-opacity:1;stroke:#303060;stroke-width:2.5;stroke-linecap:square;stroke-miterlimit:5;stroke-dasharray:none;stroke-opacity:1"
       id="rect234-3-7"
       width="16.515215"
       height="11.414047"
       x="28.564442"
       y="22.393597" />
    <rect
       style="fill:#6671b6;fill-opacity:1;stroke:#303060;stroke-width:2.5;stroke-linecap:square;stroke-miterlimit:5;stroke-dasharray:none;stroke-opacity:1"
       id="rect234-2"
       width="16.515215"
       height="11.414047"
       x="12.049227"
       y="33.807644" />
    <rect
       style="fill:#6671b6;fill-opacity:1;stroke:#303060;stroke-width:2.5;stroke-linecap:square;stroke-miterlimit:5;stroke-dasharray:none;stroke-opacity:1"
       id="rect234-3-9"
       width="16.515215"
       height="11.414047"
       x="28.564442"
       y="33.807644" />
    <rect
       style="fill:#6671b6;fill-opacity:1;stroke:#303060;stroke-width:2.5;stroke-linecap:square;stroke-miterlimit:5;stroke-dasharray:none;stroke-opacity:1"
       id="rect234-3-0"
       width="16.515215"
       height="11.414047"
       x="61.594875"
       y="10.979549" />
    <rect
       style="fill:#6671b6;fill-opacity:1;stroke:#303060;stroke-width:2.5;stroke-linecap:square;stroke-miterlimit:5;stroke-dasharray:none;stroke-opacity:1"
       id="rect234-3-7-3"
       width="16.515215"
       height="11.414047"
       x="61.594875"
       y="22.393597" />
    <rect
       style="fill:#6671b6;fill-opacity:1;stroke:#303060;stroke-width:2.5;stroke-linecap:square;stroke-miterlimit:5;stroke-dasharray:none;stroke-opacity:1"
       id="rect234-3-9-0"
       width="16.515215"
       height="11.414047"
       x="61.594875"
       y="33.807644" />
    <rect
       style="fill:#6671b6;fill-opacity:1;stroke:#303060;stroke-width:2.5;stroke-linecap:square;stroke-miterlimit:5;stroke-dasharray:none;stroke-opacity:1"
       id="rect234-3-8"
       width="16.515215"
       height="11.414047"
       x="94.625305"
       y="10.979534" />
    <rect
       style="fill:#6671b6;fill-opacity:1;stroke:#303060;stroke-width:2.5;stroke-linecap:square;stroke-miterlimit:5;stroke-dasharray:none;stroke-opacity:1"
       id="rect234-3-7-9"
       width="16.515215"
       height="11.414047"
       x="94.625305"
       y="22.393597" />
    <rect
       style="fill:#6671b6;fill-opacity:1;stroke:#303060;stroke-width:2.5;stroke-linecap:square;stroke-miterlimit:5;stroke-dasharray:none;stroke-opacity:1"
       id="rect234-3-9-02"
       width="16.515215"
       height="11.414047"
       x="94.625305"
       y="33.807644" />
    <rect
       style="fill:#6671b6;fill-opacity:1;stroke:#303060;stroke-width:2.5;stroke-linecap:square;stroke-miterlimit:5;stroke-dasharray:none;stroke-opacity:1"
       id="rect234-7-5"
       width="16.515215"
       height="11.414047"
       x="111.14052"
       y="10.979549" />
    <rect
       style="fill:#6671b6;fill-opacity:1;stroke:#303060;stroke-width:2.5;stroke-linecap:square;stroke-miterlimit:5;stroke-dasharray:none;stroke-opacity:1"
       id="rect234-3-0-9"
       width="16.515215"
       height="11.414047"
       x="127.65574"
       y="10.979549" />
    <rect
       style="fill:#6671b6;fill-opacity:1;stroke:#303060;stroke-width:2.5;stroke-linecap:square;stroke-miterlimit:5;stroke-dasharray:none;stroke-opacity:1"
       id="rect234-6-9-2"
       width="16.515215"
       height="11.414047"
       x="111.14052"
       y="22.393597" />
    <rect
       style="fill:#6671b6;fill-opacity:1;stroke:#303060;stroke-width:2.5;stroke-linecap:square;stroke-miterlimit:5;stroke-dasharray:none;stroke-opacity:1"
       id="rect234-3-7-3-2"
       width="16.515215"
       height="11.414047"
       x="127.65574"
       y="22.393597" />
    <rect
       style="fill:#6671b6;fill-opacity:1;stroke:#303060;stroke-width:2.5;stroke-linecap:square;stroke-miterlimit:5;stroke-dasharray:none;stroke-opacity:1"
       id="rect234-2-6-8"
       width="16.515215"
       height="11.414047"
       x="111.14052"
       y="33.807644" />
    <rect
       style="fill:#6671b6;fill-opacity:1;stroke:#303060;stroke-width:2.5;stroke-linecap:square;stroke-miterlimit:5;stroke-dasharray:none;stroke-opacity:1"
       id="rect234-3-9-0-9"
       width="16.515215"
       height="11.414047"
       x="127.65574"
       y="33.807644" />
    <rect
       style="fill:#6671b6;fill-opacity:1;stroke:#303060;stroke-width:2.5;stroke-linecap:square;stroke-miterlimit:5;stroke-dasharray:none;stroke-opacity:1"
       id="rect234-612"
       width="16.515215"
       height="11.414047"
       x="12.049227"
       y="56.635708" />
    <rect
       style="fill:#6671b6;fill-opacity:1;stroke:#303060;stroke-width:2.5;stroke-linecap:square;stroke-miterlimit:5;stroke-dasharray:none;stroke-opacity:1"
       id="rect234-3-93"
       width="16.515215"
       height="11.414047"
       x="28.564442"
       y="56.635708" />
    <rect
       style="fill:#6671b6;fill-opacity:1;stroke:#303060;stroke-width:2.5;stroke-linecap:square;stroke-miterlimit:5;stroke-dasharray:none;stroke-opacity:1"
       id="rect234-2-7"
       width="16.515215"
       height="11.414047"
       x="12.049227"
       y="79.463806" />
    <rect
       style="fill:#6671b6;fill-opacity:1;stroke:#303060;stroke-width:2.5;stroke-linecap:square;stroke-miterlimit:5;stroke-dasharray:none;stroke-opacity:1"
       id="rect234-3-9-8"
       width="16.515215"
       height="11.414047"
       x="28.564442"
       y="79.463806" />
    <rect
       style="fill:#6671b6;fill-opacity:1;stroke:#303060;stroke-width:2.5;stroke-linecap:square;stroke-miterlimit:5;stroke-dasharray:none;stroke-opacity:1"
       id="rect234-6-1-4"
       width="16.515215"
       height="11.414047"
       x="12.049227"
       y="90.877853" />
    <rect
       style="fill:#6671b6;fill-opacity:1;stroke:#303060;stroke-width:2.5;stroke-linecap:square;stroke-miterlimit:5;stroke-dasharray:none;stroke-opacity:1"
       id="rect234-3-7-2-5"
       width="16.515215"
       height="11.414047"
       x="28.564442"
       y="90.877853" />
    <rect
       style="fill:#6671b6;fill-opacity:1;stroke:#303060;stroke-width:2.5;stroke-linecap:square;stroke-miterlimit:5;stroke-dasharray:none;stroke-opacity:1"
       id="rect234-3-0-3"
       width="16.515215"
       height="11.414047"
       x="61.594875"
       y="56.635723" />
    <rect
       style="fill:#6671b6;fill-opacity:1;stroke:#303060;stroke-width:2.5;stroke-linecap:square;stroke-miterlimit:5;stroke-dasharray:none;stroke-opacity:1"
       id="rect234-3-9-0-6"
       width="16.515215"
       height="11.414047"
       x="61.594875"
       y="79.463806" />
    <rect
       style="fill:#6671b6;fill-opacity:1;stroke:#303060;stroke-width:2.5;stroke-linecap:square;stroke-miterlimit:5;stroke-dasharray:none;stroke-opacity:1"
       id="rect234-3-7-2-2-2"
       width="16.515215"
       height="11.414047"
       x="61.594875"
       y="90.877853" />
    <rect
       style="fill:#6671b6;fill-opacity:1;stroke:#303060;stroke-width:2.5;stroke-linecap:square;stroke-miterlimit:5;stroke-dasharray:none;stroke-opacity:1"
       id="rect234-3-8-6"
       width="16.515215"
       height="11.414047"
       x="94.625305"
       y="56.635708" />
    <rect
       style="fill:#6671b6;fill-opacity:1;stroke:#303060;stroke-width:2.5;stroke-linecap:square;stroke-miterlimit:5;stroke-dasharray:none;stroke-opacity:1"
       id="rect234-3-9-02-4"
       width="16.515215"
       height="11.414047"
       x="94.625305"
       y="79.463806" />
    <rect
       style="fill:#6671b6;fill-opacity:1;stroke:#303060;stroke-width:2.5;stroke-linecap:square;stroke-miterlimit:5;stroke-dasharray:none;stroke-opacity:1"
       id="rect234-3-7-2-7-6"
       width="16.515215"
       height="11.414047"
       x="94.625305"
       y="90.877853" />
    <rect
       style="fill:#6671b6;fill-opacity:1;stroke:#303060;stroke-width:2.5;stroke-linecap:square;stroke-miterlimit:5;stroke-dasharray:none;stroke-opacity:1"
       id="rect234-7-5-5"
       width="16.515215"
       height="11.414047"
       x="111.14052"
       y="56.635723" />
    <rect
       style="fill:#6671b6;fill-opacity:1;stroke:#303060;stroke-width:2.5;stroke-linecap:square;stroke-miterlimit:5;stroke-dasharray:none;stroke-opacity:1"
       id="rect234-3-0-9-6"
       width="16.515215"
       height="11.414047"
       x="127.65574"
       y="56.635723" />
    <rect
       style="fill:#6671b6;fill-opacity:1;stroke:#303060;stroke-width:2.5;stroke-linecap:square;stroke-miterlimit:5;stroke-dasharray:none;stroke-opacity:1"
       id="rect234-2-6-8-7"
       width="16.515215"
       height="11.414047"
       x="111.14052"
       y="79.463806" />
    <rect
       style="fill:#6671b6;fill-opacity:1;stroke:#303060;stroke-width:2.5;stroke-linecap:square;stroke-miterlimit:5;stroke-dasharray:none;stroke-opacity:1"
       id="rect234-3-9-0-9-4"
       width="16.515215"
       height="11.414047"
       x="127.65574"
       y="79.463806" />
    <rect
       style="fill:#6671b6;fill-opacity:1;stroke:#303060;stroke-width:2.5;stroke-linecap:square;stroke-miterlimit:5;stroke-dasharray:none;stroke-opacity:1"
       id="rect234-6-1-6-7-5"
       width="16.515215"
       height="11.414047"
       x="111.14052"
       y="90.877853" />
    <rect
       style="fill:#6671b6;fill-opacity:1;stroke:#303060;stroke-width:2.5;stroke-linecap:square;stroke-miterlimit:5;stroke-dasharray:none;stroke-opacity:1"
       id="rect234-3-7-2-2-3-2"
       width="16.515215"
       height="11.414047"
       x="127.65574"
       y="90.877853" />
    <g
       inkscape:label=""
       transform="translate(35.383694,114.83063)"
       id="g1934">
      <g
         fill="#000000"
         fill-opacity="1"
         id="g50"
         transform="matrix(0.352778,0,0,0.352778,-0.788238,0)">
        <g
           id="use48">
          <path
             d="M 16.78125,21.28125 2.625,38.765625 C 2.3125,39.171875 2.265625,39.25 2.265625,39.40625 c 0,0.4375 0.359375,0.4375 1.078125,0.4375 H 36.375 l 3.421875,-9.921875 H 38.8125 c -1,2.984375 -3.671875,5.421875 -7.0625,6.578125 -0.625,0.203125 -3.375,1.15625 -9.234375,1.15625 H 5.578125 L 19.40625,20.5625 c 0.28125,-0.359375 0.359375,-0.484375 0.359375,-0.640625 0,-0.15625 -0.04687,-0.203125 -0.28125,-0.5625 L 6.53125,1.59375 H 22.3125 c 4.546875,0 13.703125,0.28125 16.5,7.734375 h 0.984375 L 36.375,0 H 3.34375 C 2.265625,0 2.234375,0.046875 2.234375,1.28125 Z m 0,0"
             id="path106" />
        </g>
      </g>
      <g
         fill="#000000"
         fill-opacity="1"
         id="g54"
         transform="matrix(0.352778,0,0,0.352778,-0.788238,0)">
        <g
           id="use52"
           transform="translate(42.064999,41.09)">
          <path
             d="m 6.59375,-15.828125 c 0,-0.53125 -0.03125,-0.546875 -0.375,-0.546875 -0.96875,1.15625 -2.421875,1.53125 -3.8125,1.578125 -0.078125,0 -0.203125,0 -0.21875,0.04687 -0.03125,0.0625 -0.03125,0.109375 -0.03125,0.625 0.765625,0 2.0625,-0.15625 3.046875,-0.75 v 13.0625 c 0,0.875 -0.046875,1.171875 -2.1875,1.171875 H 2.28125 V 0 c 1.1875,-0.03125 2.421875,-0.046875 3.609375,-0.046875 1.203125,0 2.4375,0.015625 3.625,0.046875 v -0.640625 h -0.75 c -2.125,0 -2.171875,-0.28125 -2.171875,-1.171875 z m 0,0"
             id="path110" />
        </g>
      </g>
      <g
         fill="#000000"
         fill-opacity="1"
         id="g58"
         transform="matrix(0.352778,0,0,0.352778,-0.788238,0)">
        <g
           id="use56"
           transform="translate(53.431999,41.09)">
          <path
             d="m 16.734375,-14.71875 c 0.265625,-0.125 0.46875,-0.25 0.46875,-0.546875 0,-0.265625 -0.203125,-0.5 -0.5,-0.5 -0.125,0 -0.34375,0.109375 -0.453125,0.15625 l -13.703125,6.46875 c -0.421875,0.1875 -0.484375,0.375 -0.484375,0.5625 0,0.234375 0.140625,0.40625 0.484375,0.546875 L 16.25,-1.59375 c 0.328125,0.1875 0.375,0.1875 0.453125,0.1875 0.265625,0 0.5,-0.234375 0.5,-0.5 0,-0.21875 -0.109375,-0.375 -0.53125,-0.578125 L 3.71875,-8.578125 Z m -0.40625,18.109375 c 0.421875,0 0.875,0 0.875,-0.484375 0,-0.5 -0.53125,-0.5 -0.890625,-0.5 H 2.953125 c -0.375,0 -0.890625,0 -0.890625,0.5 0,0.484375 0.4375,0.484375 0.859375,0.484375 z m 0,0"
             id="path114" />
        </g>
      </g>
      <g
         clip-path="url(#clipPath9936)"
         id="g68"
         transform="matrix(0.352778,0,0,0.352778,-0.788238,0)">
        <g
           fill="#000000"
           fill-opacity="1"
           id="g66">
          <g
             id="use60"
             transform="translate(72.710999,41.09)">
            <path
               d="m 7.015625,-3.546875 c 0,-0.125 -0.109375,-0.21875 -0.25,-0.21875 -0.21875,0 -0.25,0.078125 -0.375,0.5 C 5.75,-1.015625 4.734375,-0.25 3.921875,-0.25 c -0.296875,0 -0.65625,-0.078125 -0.65625,-0.8125 0,-0.671875 0.296875,-1.421875 0.578125,-2.15625 l 1.734375,-4.609375 c 0.078125,-0.203125 0.25,-0.640625 0.25,-1.125 0,-1.03125 -0.75,-1.96875 -1.96875,-1.96875 -2.265625,0 -3.1875,3.59375 -3.1875,3.78125 0,0.109375 0.09375,0.234375 0.265625,0.234375 0.234375,0 0.25,-0.109375 0.34375,-0.453125 0.609375,-2.078125 1.546875,-3.078125 2.515625,-3.078125 0.21875,0 0.640625,0.03125 0.640625,0.828125 0,0.640625 -0.328125,1.453125 -0.515625,2 L 2.1875,-3 c -0.15625,0.390625 -0.296875,0.796875 -0.296875,1.234375 0,1.125 0.765625,2.015625 1.953125,2.015625 2.28125,0 3.171875,-3.625 3.171875,-3.796875 z M 6.8125,-15.46875 c 0,-0.359375 -0.296875,-0.8125 -0.84375,-0.8125 -0.5625,0 -1.203125,0.546875 -1.203125,1.1875 0,0.625 0.515625,0.8125 0.8125,0.8125 0.671875,0 1.234375,-0.640625 1.234375,-1.1875 z m 0,0"
               id="path118" />
          </g>
          <g
             id="use62"
             transform="translate(80.989891,41.09)">
            <path
               d="m 4.828125,0.09375 c 0,-1.4375 -0.46875,-2.5 -1.484375,-2.5 -0.796875,0 -1.1875,0.640625 -1.1875,1.1875 C 2.15625,-0.671875 2.53125,0 3.375,0 3.6875,0 3.96875,-0.09375 4.1875,-0.328125 4.234375,-0.375 4.265625,-0.375 4.28125,-0.375 c 0.0625,0 0.0625,0.34375 0.0625,0.46875 0,0.828125 -0.15625,2.4375 -1.59375,4.046875 C 2.484375,4.4375 2.484375,4.484375 2.484375,4.53125 c 0,0.125 0.125,0.25 0.234375,0.25 0.203125,0 2.109375,-1.828125 2.109375,-4.6875 z m 0,0"
               id="path122" />
          </g>
          <g
             id="use64"
             transform="translate(87.731979,41.09)">
            <path
               d="m 8.671875,-7.859375 c 0.09375,-0.390625 0.09375,-0.734375 0.09375,-0.84375 0,-1.4375 -1.0625,-2.21875 -2.171875,-2.21875 -2.5,0 -3.84375,3.609375 -3.84375,3.78125 0,0.125 0.09375,0.234375 0.25,0.234375 0.203125,0 0.21875,-0.109375 0.34375,-0.359375 1,-2.40625 2.234375,-3.171875 3.171875,-3.171875 0.515625,0 0.796875,0.28125 0.796875,1.140625 0,0.59375 -0.078125,0.84375 -0.171875,1.296875 L 4.78125,1.34375 c -0.46875,1.828125 -1.640625,3.21875 -3,3.21875 -0.09375,0 -0.609375,0 -1.09375,-0.25 0.59375,-0.125 1.078125,-0.59375 1.078125,-1.1875 0,-0.40625 -0.296875,-0.796875 -0.84375,-0.796875 -0.65625,0 -1.25,0.546875 -1.25,1.296875 0,1.015625 1.09375,1.4375 2.109375,1.4375 C 3.5,5.0625 5.75,3.796875 6.375,1.3125 Z M 9.6875,-15.46875 c 0,-0.609375 -0.515625,-0.8125 -0.8125,-0.8125 -0.671875,0 -1.25,0.640625 -1.25,1.1875 0,0.375 0.3125,0.8125 0.84375,0.8125 0.578125,0 1.21875,-0.53125 1.21875,-1.1875 z m 0,0"
               id="path126" />
          </g>
        </g>
      </g>
      <g
         fill="#000000"
         fill-opacity="1"
         id="g72"
         transform="matrix(0.352778,0,0,0.352778,-0.788238,0)">
        <g
           id="use70"
           transform="translate(99.167999,41.09)">
          <path
             d="m 16.734375,-14.71875 c 0.265625,-0.125 0.46875,-0.25 0.46875,-0.546875 0,-0.265625 -0.203125,-0.5 -0.5,-0.5 -0.125,0 -0.34375,0.109375 -0.453125,0.15625 l -13.703125,6.46875 c -0.421875,0.1875 -0.484375,0.375 -0.484375,0.5625 0,0.234375 0.140625,0.40625 0.484375,0.546875 L 16.25,-1.59375 c 0.328125,0.1875 0.375,0.1875 0.453125,0.1875 0.265625,0 0.5,-0.234375 0.5,-0.5 0,-0.21875 -0.109375,-0.375 -0.53125,-0.578125 L 3.71875,-8.578125 Z m -0.40625,18.109375 c 0.421875,0 0.875,0 0.875,-0.484375 0,-0.5 -0.53125,-0.5 -0.890625,-0.5 H 2.953125 c -0.375,0 -0.890625,0 -0.890625,0.5 0,0.484375 0.4375,0.484375 0.859375,0.484375 z m 0,0"
             id="path130" />
        </g>
      </g>
      <g
         fill="#000000"
         fill-opacity="1"
         id="g76"
         transform="matrix(0.352778,0,0,0.352778,-0.788238,0)">
        <g
           id="use74"
           transform="translate(118.447,41.09)">
          <path
             d="M 5.109375,-7.265625 C 5.15625,-7.40625 5.78125,-8.65625 6.6875,-9.4375 c 0.640625,-0.59375 1.484375,-1 2.453125,-1 1,0 1.34375,0.75 1.34375,1.734375 0,1.421875 -1.015625,4.25 -1.515625,5.578125 C 8.75,-2.53125 8.625,-2.203125 8.625,-1.765625 c 0,1.125 0.765625,2.015625 1.953125,2.015625 2.3125,0 3.171875,-3.640625 3.171875,-3.796875 0,-0.125 -0.09375,-0.21875 -0.25,-0.21875 -0.21875,0 -0.234375,0.078125 -0.359375,0.5 C 12.5625,-1.234375 11.625,-0.25 10.65625,-0.25 c -0.25,0 -0.640625,-0.015625 -0.640625,-0.8125 0,-0.625 0.265625,-1.359375 0.421875,-1.71875 0.484375,-1.359375 1.53125,-4.125 1.53125,-5.546875 0,-1.484375 -0.859375,-2.59375 -2.75,-2.59375 -2.203125,0 -3.375,1.546875 -3.8125,2.171875 -0.078125,-1.40625 -1.09375,-2.171875 -2.1875,-2.171875 -0.796875,0 -1.328125,0.46875 -1.75,1.3125 -0.453125,0.890625 -0.796875,2.375 -0.796875,2.46875 0,0.109375 0.09375,0.234375 0.265625,0.234375 0.203125,0 0.234375,-0.03125 0.375,-0.609375 0.390625,-1.5 0.84375,-2.921875 1.828125,-2.921875 0.578125,0 0.78125,0.40625 0.78125,1.140625 0,0.546875 -0.25,1.515625 -0.421875,2.28125 L 2.796875,-4.34375 c -0.09375,0.484375 -0.375,1.59375 -0.5,2.046875 C 2.125,-1.65625 1.859375,-0.5 1.859375,-0.375 1.859375,-0.03125 2.125,0.25 2.5,0.25 c 0.296875,0 0.640625,-0.15625 0.84375,-0.515625 0.046875,-0.125 0.28125,-1 0.390625,-1.5 l 0.546875,-2.21875 z m 0,0"
             id="path134" />
        </g>
      </g>
      <g
         fill="#000000"
         fill-opacity="1"
         id="g80"
         transform="matrix(0.352778,0,0,0.352778,-0.788238,0)">
        <g
           id="use78"
           transform="translate(137.564,26.122)">
          <path
             d="m 7.453125,-2.953125 c -0.125,0.421875 -0.125,0.46875 -0.46875,0.953125 -0.546875,0.6875 -1.625,1.75 -2.796875,1.75 -1.015625,0 -1.578125,-0.921875 -1.578125,-2.375 0,-1.359375 0.765625,-4.140625 1.234375,-5.1875 0.84375,-1.734375 2,-2.625 2.96875,-2.625 1.640625,0 1.953125,2.03125 1.953125,2.234375 0,0.03125 -0.0625,0.34375 -0.09375,0.390625 z m 1.59375,-6.34375 c -0.28125,-0.640625 -0.9375,-1.625 -2.234375,-1.625 -2.796875,0 -5.828125,3.609375 -5.828125,7.28125 0,2.453125 1.4375,3.890625 3.125,3.890625 1.375,0 2.53125,-1.0625 3.21875,-1.890625 C 7.578125,-0.171875 8.75,0.25 9.484375,0.25 c 0.75,0 1.34375,-0.453125 1.796875,-1.34375 0.390625,-0.84375 0.734375,-2.34375 0.734375,-2.453125 0,-0.125 -0.09375,-0.21875 -0.25,-0.21875 -0.21875,0 -0.25,0.125 -0.34375,0.5 C 11.046875,-1.8125 10.578125,-0.25 9.5625,-0.25 c -0.71875,0 -0.765625,-0.640625 -0.765625,-1.140625 0,-0.5625 0.078125,-0.84375 0.296875,-1.8125 0.171875,-0.609375 0.296875,-1.15625 0.5,-1.875 0.90625,-3.71875 1.140625,-4.609375 1.140625,-4.765625 0,-0.34375 -0.28125,-0.609375 -0.640625,-0.609375 -0.796875,0 -1,0.859375 -1.046875,1.15625 z m 0,0"
             id="path138" />
        </g>
      </g>
      <g
         fill="#000000"
         fill-opacity="1"
         id="g86"
         transform="matrix(0.352778,0,0,0.352778,-0.788238,0)">
        <g
           id="use82"
           transform="translate(150.30499,33.834999)">
          <path
             d="m 7.015625,-3.546875 c 0,-0.125 -0.109375,-0.21875 -0.25,-0.21875 -0.21875,0 -0.25,0.078125 -0.375,0.5 C 5.75,-1.015625 4.734375,-0.25 3.921875,-0.25 c -0.296875,0 -0.65625,-0.078125 -0.65625,-0.8125 0,-0.671875 0.296875,-1.421875 0.578125,-2.15625 l 1.734375,-4.609375 c 0.078125,-0.203125 0.25,-0.640625 0.25,-1.125 0,-1.03125 -0.75,-1.96875 -1.96875,-1.96875 -2.265625,0 -3.1875,3.59375 -3.1875,3.78125 0,0.109375 0.09375,0.234375 0.265625,0.234375 0.234375,0 0.25,-0.109375 0.34375,-0.453125 0.609375,-2.078125 1.546875,-3.078125 2.515625,-3.078125 0.21875,0 0.640625,0.03125 0.640625,0.828125 0,0.640625 -0.328125,1.453125 -0.515625,2 L 2.1875,-3 c -0.15625,0.390625 -0.296875,0.796875 -0.296875,1.234375 0,1.125 0.765625,2.015625 1.953125,2.015625 2.28125,0 3.171875,-3.625 3.171875,-3.796875 z M 6.8125,-15.46875 c 0,-0.359375 -0.296875,-0.8125 -0.84375,-0.8125 -0.5625,0 -1.203125,0.546875 -1.203125,1.1875 0,0.625 0.515625,0.8125 0.8125,0.8125 0.671875,0 1.234375,-0.640625 1.234375,-1.1875 z m 0,0"
             id="path142" />
        </g>
        <g
           id="use84"
           transform="translate(158.58389,33.834999)">
          <path
             d="m 8.671875,-7.859375 c 0.09375,-0.390625 0.09375,-0.734375 0.09375,-0.84375 0,-1.4375 -1.0625,-2.21875 -2.171875,-2.21875 -2.5,0 -3.84375,3.609375 -3.84375,3.78125 0,0.125 0.09375,0.234375 0.25,0.234375 0.203125,0 0.21875,-0.109375 0.34375,-0.359375 1,-2.40625 2.234375,-3.171875 3.171875,-3.171875 0.515625,0 0.796875,0.28125 0.796875,1.140625 0,0.59375 -0.078125,0.84375 -0.171875,1.296875 L 4.78125,1.34375 c -0.46875,1.828125 -1.640625,3.21875 -3,3.21875 -0.09375,0 -0.609375,0 -1.09375,-0.25 0.59375,-0.125 1.078125,-0.59375 1.078125,-1.1875 0,-0.40625 -0.296875,-0.796875 -0.84375,-0.796875 -0.65625,0 -1.25,0.546875 -1.25,1.296875 0,1.015625 1.09375,1.4375 2.109375,1.4375 C 3.5,5.0625 5.75,3.796875 6.375,1.3125 Z M 9.6875,-15.46875 c 0,-0.609375 -0.515625,-0.8125 -0.8125,-0.8125 -0.671875,0 -1.25,0.640625 -1.25,1.1875 0,0.375 0.3125,0.8125 0.84375,0.8125 0.578125,0 1.21875,-0.53125 1.21875,-1.1875 z m 0,0"
             id="path146" />
        </g>
      </g>
      <g
         fill="#000000"
         fill-opacity="1"
         id="g90"
         transform="matrix(0.352778,0,0,0.352778,-0.788238,0)">
        <g
           id="use88"
           transform="translate(177.403,26.122)">
          <path
             d="m 20.671875,-5.703125 c -1.375,1.046875 -2.03125,2.0625 -2.234375,2.375 -1.109375,1.71875 -1.3125,3.28125 -1.3125,3.296875 0,0.296875 0.296875,0.296875 0.5,0.296875 0.421875,0 0.4375,-0.046875 0.546875,-0.484375 0.5625,-2.4375 2.03125,-4.515625 4.828125,-5.65625 0.296875,-0.09375 0.375,-0.140625 0.375,-0.3125 0,-0.1875 -0.15625,-0.25 -0.203125,-0.28125 -1.09375,-0.421875 -4.09375,-1.65625 -5.03125,-5.828125 -0.07813,-0.296875 -0.09375,-0.359375 -0.515625,-0.359375 -0.203125,0 -0.5,0 -0.5,0.296875 0,0.04687 0.21875,1.609375 1.265625,3.265625 0.5,0.75 1.21875,1.609375 2.28125,2.40625 H 2.25 c -0.4375,0 -0.890625,0 -0.890625,0.5 0,0.484375 0.453125,0.484375 0.890625,0.484375 z m 0,0"
             id="path150" />
        </g>
      </g>
      <g
         clip-path="url(#clipPath1493)"
         id="g100"
         transform="matrix(0.352778,0,0,0.352778,-0.788238,0)">
        <g
           fill="#000000"
           fill-opacity="1"
           id="g98">
          <g
             id="use92"
             transform="translate(209.075,26.122)">
            <path
               d="m 16.75,-7.53125 c 0,-1.234375 -0.21875,-3.328125 -3.171875,-3.328125 -1.6875,0 -2.84375,1.140625 -3.296875,2.484375 H 10.26562 C 9.96875,-10.40625 8.5,-10.859375 7.109375,-10.859375 c -1.953125,0 -2.96875,1.515625 -3.34375,2.515625 h -0.03125 v -2.515625 L 0.8125,-10.578125 V -9.9375 c 1.46875,0 1.6875,0.15625 1.6875,1.34375 v 6.890625 c 0,0.9375 -0.09375,1.0625 -1.6875,1.0625 V 0 C 1.40625,-0.046875 2.5,-0.046875 3.140625,-0.046875 c 0.65625,0 1.765625,0 2.359375,0.046875 v -0.640625 c -1.578125,0 -1.6875,-0.109375 -1.6875,-1.0625 V -6.46875 c 0,-2.28125 1.390625,-3.984375 3.125,-3.984375 1.828125,0 2.03125,1.625 2.03125,2.828125 v 5.921875 c 0,0.9375 -0.09375,1.0625 -1.6875,1.0625 V 0 c 0.59375,-0.046875 1.6875,-0.046875 2.328125,-0.046875 0.65625,0 1.765625,0 2.359375,0.046875 v -0.640625 c -1.578125,0 -1.6875,-0.109375 -1.6875,-1.0625 V -6.46875 c 0,-2.28125 1.390625,-3.984375 3.125,-3.984375 1.828125,0 2.03125,1.625 2.03125,2.828125 v 5.921875 c 0,0.9375 -0.09375,1.0625 -1.6875,1.0625 V 0 c 0.59375,-0.046875 1.6875,-0.046875 2.328125,-0.046875 0.65625,0 1.765625,0 2.359375,0.046875 v -0.640625 c -1.59375,0 -1.6875,-0.109375 -1.6875,-1.0625 z m 0,0"
               id="path154" />
          </g>
          <g
             id="use94"
             transform="translate(228.21312,26.122)">
            <path
               d="m 8.921875,-6.421875 c 0,-1.625 0,-2.5 -1.046875,-3.46875 -0.90625,-0.8125 -1.984375,-1.0625 -2.8125,-1.0625 -1.96875,0 -3.375,1.53125 -3.375,3.171875 0,0.921875 0.734375,0.96875 0.890625,0.96875 0.328125,0 0.890625,-0.203125 0.890625,-0.890625 0,-0.625 -0.46875,-0.890625 -0.890625,-0.890625 -0.09375,0 -0.21875,0.015625 -0.296875,0.046875 C 2.796875,-10.109375 4.140625,-10.5625 5,-10.5625 c 1.25,0 2.609375,1.09375 2.609375,3.171875 v 1.09375 C 6.140625,-6.25 4.390625,-6.046875 3,-5.296875 1.4375,-4.4375 0.984375,-3.203125 0.984375,-2.25 c 0,1.90625 2.234375,2.453125 3.546875,2.453125 1.359375,0 2.625,-0.765625 3.171875,-2.1875 0.046875,1.09375 0.75,2.078125 1.84375,2.078125 C 10.0625,0.09375 11.375,-0.25 11.375,-2.203125 V -3.59375 h -0.453125 v 1.40625 c 0,1.515625 -0.65625,1.71875 -0.984375,1.71875 -1.015625,0 -1.015625,-1.296875 -1.015625,-2.375 z m -1.3125,2.984375 c 0,2.15625 -1.53125,3.234375 -2.90625,3.234375 C 3.46875,-0.203125 2.5,-1.109375 2.5,-2.25 2.5,-3 2.828125,-4.3125 4.265625,-5.109375 5.453125,-5.78125 6.8125,-5.875 7.609375,-5.921875 Z m 0,0"
               id="path158" />
          </g>
          <g
             id="use96"
             transform="translate(239.58049,26.122)">
            <path
               d="m 6.4375,-5.78125 c 0.75,-0.953125 1.59375,-2.046875 2.28125,-2.875 0.828125,-0.9375 1.765625,-1.328125 2.859375,-1.359375 v -0.640625 c -0.421875,0.03125 -1.296875,0.04687 -1.734375,0.04687 -0.671875,0 -1.4375,0 -2.015625,-0.04687 v 0.640625 C 8.171875,-9.96875 8.375,-9.71875 8.375,-9.375 8.375,-8.921875 8.125,-8.65625 8,-8.46875 L 6.171875,-6.140625 3.984375,-9 c -0.21875,-0.265625 -0.21875,-0.3125 -0.21875,-0.4375 0,-0.296875 0.25,-0.546875 0.671875,-0.578125 v -0.640625 c -0.59375,0.04687 -1.65625,0.04687 -2.28125,0.04687 -0.671875,0 -1.46875,0 -2,-0.04687 v 0.640625 c 1.328125,0 1.625,0.109375 2.21875,0.84375 l 2.859375,3.6875 c 0.046875,0.0625 0.171875,0.203125 0.171875,0.28125 0,0.09375 -2.15625,2.75 -2.4375,3.09375 -1.109375,1.34375 -2.28125,1.4375 -2.9375,1.46875 V 0 c 0.421875,-0.03125 1.28125,-0.046875 1.734375,-0.046875 0.484375,0 1.578125,0 2.03125,0.046875 V -0.640625 C 3.640625,-0.671875 3.25,-0.71875 3.25,-1.28125 3.25,-1.734375 3.4375,-2 3.671875,-2.296875 L 5.71875,-4.828125 7.875,-2.03125 c 0.203125,0.265625 0.5,0.640625 0.5,0.8125 0,0.34375 -0.296875,0.546875 -0.6875,0.578125 V 0 c 0.59375,-0.046875 1.65625,-0.046875 2.28125,-0.046875 0.65625,0 1.453125,0 2,0.046875 v -0.640625 c -1.234375,0 -1.609375,-0.046875 -2.203125,-0.828125 z m 0,0"
               id="path162" />
          </g>
        </g>
      </g>
    </g>
  </g>
</svg>
