<?xml version="1.0" encoding="UTF-8" standalone="no"?>
<!-- Created with Inkscape (http://www.inkscape.org/) -->

<svg
   width="160mm"
   height="140mm"
   viewBox="0 0 160 140"
   version="1.1"
   id="svg5"
   sodipodi:docname="count_tables.svg"
   inkscape:version="1.2.2 (b0a8486541, 2022-12-01)"
   xmlns:inkscape="http://www.inkscape.org/namespaces/inkscape"
   xmlns:sodipodi="http://sodipodi.sourceforge.net/DTD/sodipodi-0.dtd"
   xmlns="http://www.w3.org/2000/svg"
   xmlns:svg="http://www.w3.org/2000/svg">
  <sodipodi:namedview
     id="namedview7"
     pagecolor="#ffffff"
     bordercolor="#000000"
     borderopacity="0.25"
     inkscape:showpageshadow="2"
     inkscape:pageopacity="0.0"
     inkscape:pagecheckerboard="0"
     inkscape:deskcolor="#d1d1d1"
     inkscape:document-units="mm"
     showgrid="false"
     inkscape:zoom="0.98898724"
     inkscape:cx="495.96191"
     inkscape:cy="374.62566"
     inkscape:window-width="1854"
     inkscape:window-height="1011"
     inkscape:window-x="0"
     inkscape:window-y="0"
     inkscape:window-maximized="1"
     inkscape:current-layer="layer1" />
  <defs
     id="defs2">
    <clipPath
       id="clipPath9936">
      <path
         clip-rule="nonzero"
         d="M 73,24 H 98 V 45.910156 H 73 Z m 0,0"
         id="path8110" />
    </clipPath>
    <clipPath
       id="clipPath1493">
      <path
         clip-rule="nonzero"
         d="m 209,15 h 42.59766 V 27 H 209 Z m 0,0"
         id="path1454" />
    </clipPath>
    <clipPath
       id="clipPath6006">
      <path
         clip-rule="nonzero"
         d="M 73,24 H 98 V 45.910156 H 73 Z m 0,0"
         id="path968" />
    </clipPath>
    <clipPath
       id="clipPath7945">
      <path
         clip-rule="nonzero"
         d="M 73,24 H 98 V 45.910156 H 73 Z m 0,0"
         id="path3434" />
    </clipPath>
    <clipPath
       id="clipPath5277">
      <path
         clip-rule="nonzero"
         d="m 141,24 h 25 v 21.910156 h -25 z m 0,0"
         id="path4739" />
    </clipPath>
    <clipPath
       id="clipPath5661">
      <path
         clip-rule="nonzero"
         d="m 12,95 h 6 v 25.38672 h -6 z m 0,0"
         id="path7168" />
    </clipPath>
    <clipPath
       id="clipPath7387">
      <path
         clip-rule="nonzero"
         d="m 116,24 h 25 v 21.910156 h -25 z m 0,0"
         id="path2583" />
    </clipPath>
  </defs>
  <g
     inkscape:label="Layer 1"
     inkscape:groupmode="layer"
     id="layer1">
    <rect
       style="fill:#6671b6;fill-opacity:1;stroke:#303060;stroke-width:2.5;stroke-linecap:square;stroke-miterlimit:5;stroke-dasharray:none;stroke-opacity:1"
       id="rect234"
       width="16.515215"
       height="11.414047"
       x="12.049227"
       y="10.979534" />
    <rect
       style="fill:#6671b6;fill-opacity:1;stroke:#303060;stroke-width:2.5;stroke-linecap:square;stroke-miterlimit:5;stroke-dasharray:none;stroke-opacity:1"
       id="rect234-3"
       width="16.515215"
       height="11.414047"
       x="28.564442"
       y="10.979534" />
    <rect
       style="fill:#6671b6;fill-opacity:1;stroke:#303060;stroke-width:2.5;stroke-linecap:square;stroke-miterlimit:5;stroke-dasharray:none;stroke-opacity:1"
       id="rect234-6"
       width="16.515215"
       height="11.414047"
       x="12.049229"
       y="22.393597" />
    <rect
       style="fill:#6671b6;fill-opacity:1;stroke:#303060;stroke-width:2.5;stroke-linecap:square;stroke-miterlimit:5;stroke-dasharray:none;stroke-opacity:1"
       id="rect234-3-7"
       width="16.515215"
       height="11.414047"
       x="28.564442"
       y="22.393597" />
    <rect
       style="fill:#6671b6;fill-opacity:1;stroke:#303060;stroke-width:2.5;stroke-linecap:square;stroke-miterlimit:5;stroke-dasharray:none;stroke-opacity:1"
       id="rect234-2"
       width="16.515215"
       height="11.414047"
       x="12.049227"
       y="33.807644" />
    <rect
       style="fill:#6671b6;fill-opacity:1;stroke:#303060;stroke-width:2.5;stroke-linecap:square;stroke-miterlimit:5;stroke-dasharray:none;stroke-opacity:1"
       id="rect234-3-9"
       width="16.515215"
       height="11.414047"
       x="28.564442"
       y="33.807644" />
    <rect
       style="fill:#6671b6;fill-opacity:1;stroke:#303060;stroke-width:2.5;stroke-linecap:square;stroke-miterlimit:5;stroke-dasharray:none;stroke-opacity:1"
       id="rect234-3-0"
       width="16.515215"
       height="11.414047"
       x="61.594875"
       y="10.979549" />
    <rect
       style="fill:#6671b6;fill-opacity:1;stroke:#303060;stroke-width:2.5;stroke-linecap:square;stroke-miterlimit:5;stroke-dasharray:none;stroke-opacity:1"
       id="rect234-3-7-3"
       width="16.515215"
       height="11.414047"
       x="61.594875"
       y="22.393597" />
    <rect
       style="fill:#6671b6;fill-opacity:1;stroke:#303060;stroke-width:2.5;stroke-linecap:square;stroke-miterlimit:5;stroke-dasharray:none;stroke-opacity:1"
       id="rect234-3-9-0"
       width="16.515215"
       height="11.414047"
       x="61.594875"
       y="33.807644" />
    <rect
       style="fill:#6671b6;fill-opacity:1;stroke:#303060;stroke-width:2.5;stroke-linecap:square;stroke-miterlimit:5;stroke-dasharray:none;stroke-opacity:1"
       id="rect234-3-8"
       width="16.515215"
       height="11.414047"
       x="94.625305"
       y="10.979534" />
    <rect
       style="fill:#6671b6;fill-opacity:1;stroke:#303060;stroke-width:2.5;stroke-linecap:square;stroke-miterlimit:5;stroke-dasharray:none;stroke-opacity:1"
       id="rect234-3-7-9"
       width="16.515215"
       height="11.414047"
       x="94.625305"
       y="22.393597" />
    <rect
       style="fill:#6671b6;fill-opacity:1;stroke:#303060;stroke-width:2.5;stroke-linecap:square;stroke-miterlimit:5;stroke-dasharray:none;stroke-opacity:1"
       id="rect234-3-9-02"
       width="16.515215"
       height="11.414047"
       x="94.625305"
       y="33.807644" />
    <rect
       style="fill:#6671b6;fill-opacity:1;stroke:#303060;stroke-width:2.5;stroke-linecap:square;stroke-miterlimit:5;stroke-dasharray:none;stroke-opacity:1"
       id="rect234-7-5"
       width="16.515215"
       height="11.414047"
       x="111.14052"
       y="10.979549" />
    <rect
       style="fill:#6671b6;fill-opacity:1;stroke:#303060;stroke-width:2.5;stroke-linecap:square;stroke-miterlimit:5;stroke-dasharray:none;stroke-opacity:1"
       id="rect234-3-0-9"
       width="16.515215"
       height="11.414047"
       x="127.65574"
       y="10.979549" />
    <rect
       style="fill:#6671b6;fill-opacity:1;stroke:#303060;stroke-width:2.5;stroke-linecap:square;stroke-miterlimit:5;stroke-dasharray:none;stroke-opacity:1"
       id="rect234-6-9-2"
       width="16.515215"
       height="11.414047"
       x="111.14052"
       y="22.393597" />
    <rect
       style="fill:#6671b6;fill-opacity:1;stroke:#303060;stroke-width:2.5;stroke-linecap:square;stroke-miterlimit:5;stroke-dasharray:none;stroke-opacity:1"
       id="rect234-3-7-3-2"
       width="16.515215"
       height="11.414047"
       x="127.65574"
       y="22.393597" />
    <rect
       style="fill:#6671b6;fill-opacity:1;stroke:#303060;stroke-width:2.5;stroke-linecap:square;stroke-miterlimit:5;stroke-dasharray:none;stroke-opacity:1"
       id="rect234-2-6-8"
       width="16.515215"
       height="11.414047"
       x="111.14052"
       y="33.807644" />
    <rect
       style="fill:#6671b6;fill-opacity:1;stroke:#303060;stroke-width:2.5;stroke-linecap:square;stroke-miterlimit:5;stroke-dasharray:none;stroke-opacity:1"
       id="rect234-3-9-0-9"
       width="16.515215"
       height="11.414047"
       x="127.65574"
       y="33.807644" />
    <rect
       style="fill:#6671b6;fill-opacity:1;stroke:#303060;stroke-width:2.5;stroke-linecap:square;stroke-miterlimit:5;stroke-dasharray:none;stroke-opacity:1"
       id="rect234-612"
       width="16.515215"
       height="11.414047"
       x="12.049227"
       y="56.635708" />
    <rect
       style="fill:#6671b6;fill-opacity:1;stroke:#303060;stroke-width:2.5;stroke-linecap:square;stroke-miterlimit:5;stroke-dasharray:none;stroke-opacity:1"
       id="rect234-3-93"
       width="16.515215"
       height="11.414047"
       x="28.564442"
       y="56.635708" />
    <rect
       style="fill:#6671b6;fill-opacity:1;stroke:#303060;stroke-width:2.5;stroke-linecap:square;stroke-miterlimit:5;stroke-dasharray:none;stroke-opacity:1"
       id="rect234-2-7"
       width="16.515215"
       height="11.414047"
       x="12.049227"
       y="79.463806" />
    <rect
       style="fill:#6671b6;fill-opacity:1;stroke:#303060;stroke-width:2.5;stroke-linecap:square;stroke-miterlimit:5;stroke-dasharray:none;stroke-opacity:1"
       id="rect234-3-9-8"
       width="16.515215"
       height="11.414047"
       x="28.564442"
       y="79.463806" />
    <rect
       style="fill:#6671b6;fill-opacity:1;stroke:#303060;stroke-width:2.5;stroke-linecap:square;stroke-miterlimit:5;stroke-dasharray:none;stroke-opacity:1"
       id="rect234-6-1-4"
       width="16.515215"
       height="11.414047"
       x="12.049227"
       y="90.877853" />
    <rect
       style="fill:#6671b6;fill-opacity:1;stroke:#303060;stroke-width:2.5;stroke-linecap:square;stroke-miterlimit:5;stroke-dasharray:none;stroke-opacity:1"
       id="rect234-3-7-2-5"
       width="16.515215"
       height="11.414047"
       x="28.564442"
       y="90.877853" />
    <rect
       style="fill:#6671b6;fill-opacity:1;stroke:#303060;stroke-width:2.5;stroke-linecap:square;stroke-miterlimit:5;stroke-dasharray:none;stroke-opacity:1"
       id="rect234-3-0-3"
       width="16.515215"
       height="11.414047"
       x="61.594875"
       y="56.635723" />
    <rect
       style="fill:#6671b6;fill-opacity:1;stroke:#303060;stroke-width:2.5;stroke-linecap:square;stroke-miterlimit:5;stroke-dasharray:none;stroke-opacity:1"
       id="rect234-3-9-0-6"
       width="16.515215"
       height="11.414047"
       x="61.594875"
       y="79.463806" />
    <rect
       style="fill:#6671b6;fill-opacity:1;stroke:#303060;stroke-width:2.5;stroke-linecap:square;stroke-miterlimit:5;stroke-dasharray:none;stroke-opacity:1"
       id="rect234-3-7-2-2-2"
       width="16.515215"
       height="11.414047"
       x="61.594875"
       y="90.877853" />
    <rect
       style="fill:#6671b6;fill-opacity:1;stroke:#303060;stroke-width:2.5;stroke-linecap:square;stroke-miterlimit:5;stroke-dasharray:none;stroke-opacity:1"
       id="rect234-3-8-6"
       width="16.515215"
       height="11.414047"
       x="94.625305"
       y="56.635708" />
    <rect
       style="fill:#6671b6;fill-opacity:1;stroke:#303060;stroke-width:2.5;stroke-linecap:square;stroke-miterlimit:5;stroke-dasharray:none;stroke-opacity:1"
       id="rect234-3-9-02-4"
       width="16.515215"
       height="11.414047"
       x="94.625305"
       y="79.463806" />
    <rect
       style="fill:#6671b6;fill-opacity:1;stroke:#303060;stroke-width:2.5;stroke-linecap:square;stroke-miterlimit:5;stroke-dasharray:none;stroke-opacity:1"
       id="rect234-3-7-2-7-6"
       width="16.515215"
       height="11.414047"
       x="94.625305"
       y="90.877853" />
    <rect
       style="fill:#6671b6;fill-opacity:1;stroke:#303060;stroke-width:2.5;stroke-linecap:square;stroke-miterlimit:5;stroke-dasharray:none;stroke-opacity:1"
       id="rect234-7-5-5"
       width="16.515215"
       height="11.414047"
       x="111.14052"
       y="56.635723" />
    <rect
       style="fill:#6671b6;fill-opacity:1;stroke:#303060;stroke-width:2.5;stroke-linecap:square;stroke-miterlimit:5;stroke-dasharray:none;stroke-opacity:1"
       id="rect234-3-0-9-6"
       width="16.515215"
       height="11.414047"
       x="127.65574"
       y="56.635723" />
    <rect
       style="fill:#6671b6;fill-opacity:1;stroke:#303060;stroke-width:2.5;stroke-linecap:square;stroke-miterlimit:5;stroke-dasharray:none;stroke-opacity:1"
       id="rect234-2-6-8-7"
       width="16.515215"
       height="11.414047"
       x="111.14052"
       y="79.463806" />
    <rect
       style="fill:#6671b6;fill-opacity:1;stroke:#303060;stroke-width:2.5;stroke-linecap:square;stroke-miterlimit:5;stroke-dasharray:none;stroke-opacity:1"
       id="rect234-3-9-0-9-4"
       width="16.515215"
       height="11.414047"
       x="127.65574"
       y="79.463806" />
    <rect
       style="fill:#6671b6;fill-opacity:1;stroke:#303060;stroke-width:2.5;stroke-linecap:square;stroke-miterlimit:5;stroke-dasharray:none;stroke-opacity:1"
       id="rect234-6-1-6-7-5"
       width="16.515215"
       height="11.414047"
       x="111.14052"
       y="90.877853" />
    <rect
       style="fill:#6671b6;fill-opacity:1;stroke:#303060;stroke-width:2.5;stroke-linecap:square;stroke-miterlimit:5;stroke-dasharray:none;stroke-opacity:1"
       id="rect234-3-7-2-2-3-2"
       width="16.515215"
       height="11.414047"
       x="127.65574"
       y="90.877853" />
    <g
       inkscape:label=""
       transform="translate(43.376393,111.37381)"
       id="g2100">
      <g
         fill="#000000"
         fill-opacity="1"
         id="g41"
         transform="matrix(0.352778,0,0,0.352778,-0.446484,0)">
        <g
           id="use39"
           transform="translate(0,26.122)">
          <path
             d="m 5.65625,-4.953125 c 0.421875,0.078125 1.078125,0.21875 1.234375,0.25 0.328125,0.09375 1.4375,0.484375 1.4375,1.6875 C 8.328125,-2.25 7.625,-0.25 4.765625,-0.25 4.234375,-0.25 2.375,-0.328125 1.890625,-1.6875 2.875,-1.5625 3.375,-2.328125 3.375,-2.875 c 0,-0.515625 -0.359375,-0.796875 -0.84375,-0.796875 -0.546875,0 -1.265625,0.421875 -1.265625,1.546875 0,1.453125 1.484375,2.375 3.46875,2.375 3.765625,0 4.875,-2.78125 4.875,-4.0625 0,-0.375 0,-1.0625 -0.78125,-1.859375 -0.625,-0.59375 -1.21875,-0.71875 -2.5625,-1 C 5.59375,-6.8125 4.53125,-7.03125 4.53125,-8.15625 c 0,-0.5 0.453125,-2.28125 2.796875,-2.28125 1.046875,0 2.0625,0.40625 2.3125,1.296875 -1.09375,0 -1.140625,0.9375 -1.140625,0.96875 0,0.515625 0.46875,0.65625 0.6875,0.65625 0.359375,0 1.046875,-0.265625 1.046875,-1.3125 0,-1.03125 -0.9375,-2.09375 -2.875,-2.09375 -3.25,0 -4.109375,2.546875 -4.109375,3.5625 0,1.875 1.828125,2.28125 2.40625,2.40625 z m 0,0"
             id="path91" />
        </g>
      </g>
      <g
         fill="#000000"
         fill-opacity="1"
         id="g45"
         transform="matrix(0.352778,0,0,0.352778,-0.446484,0)">
        <g
           id="use43"
           transform="translate(18.318001,26.122)">
          <path
             d="m 15.9375,-7.953125 c 0.375,0 0.734375,0 0.734375,-0.421875 0,-0.453125 -0.421875,-0.453125 -0.84375,-0.453125 H 1.984375 c -0.421875,0 -0.84375,0 -0.84375,0.453125 0,0.421875 0.375,0.421875 0.75,0.421875 z m -0.109375,4.40625 c 0.421875,0 0.84375,0 0.84375,-0.4375 0,-0.421875 -0.359375,-0.421875 -0.734375,-0.421875 H 1.890625 c -0.375,0 -0.75,0 -0.75,0.421875 0,0.4375 0.421875,0.4375 0.84375,0.4375 z m 0,0"
             id="path95" />
        </g>
      </g>
      <g
         fill="#000000"
         fill-opacity="1"
         id="g49"
         transform="matrix(0.352778,0,0,0.352778,-0.446484,0)">
        <g
           id="use47"
           transform="translate(43.046001)">
          <path
             d="M 16.78125,21.28125 2.625,38.765625 C 2.3125,39.171875 2.265625,39.25 2.265625,39.40625 c 0,0.4375 0.359375,0.4375 1.078125,0.4375 H 36.375 l 3.421875,-9.921875 H 38.8125 c -1,2.984375 -3.671875,5.421875 -7.0625,6.578125 -0.625,0.203125 -3.375,1.15625 -9.234375,1.15625 H 5.578125 L 19.40625,20.5625 c 0.28125,-0.359375 0.359375,-0.484375 0.359375,-0.640625 0,-0.15625 -0.04687,-0.203125 -0.28125,-0.5625 L 6.53125,1.59375 H 22.3125 c 4.546875,0 13.703125,0.28125 16.5,7.734375 h 0.984375 L 36.375,0 H 3.34375 C 2.265625,0 2.234375,0.046875 2.234375,1.28125 Z m 0,0"
             id="path99" />
        </g>
      </g>
      <g
         fill="#000000"
         fill-opacity="1"
         id="g53"
         transform="matrix(0.352778,0,0,0.352778,-0.446484,0)">
        <g
           id="use51"
           transform="translate(85.110001,41.09)">
          <path
             d="m 6.59375,-15.828125 c 0,-0.53125 -0.03125,-0.546875 -0.375,-0.546875 -0.96875,1.15625 -2.421875,1.53125 -3.8125,1.578125 -0.078125,0 -0.203125,0 -0.21875,0.04687 -0.03125,0.0625 -0.03125,0.109375 -0.03125,0.625 0.765625,0 2.0625,-0.15625 3.046875,-0.75 v 13.0625 c 0,0.875 -0.046875,1.171875 -2.1875,1.171875 H 2.28125 V 0 c 1.1875,-0.03125 2.421875,-0.046875 3.609375,-0.046875 1.203125,0 2.4375,0.015625 3.625,0.046875 v -0.640625 h -0.75 c -2.125,0 -2.171875,-0.28125 -2.171875,-1.171875 z m 0,0"
             id="path103" />
        </g>
      </g>
      <g
         fill="#000000"
         fill-opacity="1"
         id="g57"
         transform="matrix(0.352778,0,0,0.352778,-0.446484,0)">
        <g
           id="use55"
           transform="translate(96.477997,41.09)">
          <path
             d="m 16.734375,-14.71875 c 0.265625,-0.125 0.46875,-0.25 0.46875,-0.546875 0,-0.265625 -0.203125,-0.5 -0.5,-0.5 -0.125,0 -0.34375,0.109375 -0.453125,0.15625 l -13.703125,6.46875 c -0.421875,0.1875 -0.484375,0.375 -0.484375,0.5625 0,0.234375 0.140625,0.40625 0.484375,0.546875 L 16.25,-1.59375 c 0.328125,0.1875 0.375,0.1875 0.453125,0.1875 0.265625,0 0.5,-0.234375 0.5,-0.5 0,-0.21875 -0.109375,-0.375 -0.53125,-0.578125 L 3.71875,-8.578125 Z m -0.40625,18.109375 c 0.421875,0 0.875,0 0.875,-0.484375 0,-0.5 -0.53125,-0.5 -0.890625,-0.5 H 2.953125 c -0.375,0 -0.890625,0 -0.890625,0.5 0,0.484375 0.4375,0.484375 0.859375,0.484375 z m 0,0"
             id="path107" />
        </g>
      </g>
      <g
         clip-path="url(#clipPath7387)"
         id="g67"
         transform="matrix(0.352778,0,0,0.352778,-0.446484,0)">
        <g
           fill="#000000"
           fill-opacity="1"
           id="g65">
          <g
             id="use59"
             transform="translate(115.757,41.09)">
            <path
               d="m 7.015625,-3.546875 c 0,-0.125 -0.109375,-0.21875 -0.25,-0.21875 -0.21875,0 -0.25,0.078125 -0.375,0.5 C 5.75,-1.015625 4.734375,-0.25 3.921875,-0.25 c -0.296875,0 -0.65625,-0.078125 -0.65625,-0.8125 0,-0.671875 0.296875,-1.421875 0.578125,-2.15625 l 1.734375,-4.609375 c 0.078125,-0.203125 0.25,-0.640625 0.25,-1.125 0,-1.03125 -0.75,-1.96875 -1.96875,-1.96875 -2.265625,0 -3.1875,3.59375 -3.1875,3.78125 0,0.109375 0.09375,0.234375 0.265625,0.234375 0.234375,0 0.25,-0.109375 0.34375,-0.453125 0.609375,-2.078125 1.546875,-3.078125 2.515625,-3.078125 0.21875,0 0.640625,0.03125 0.640625,0.828125 0,0.640625 -0.328125,1.453125 -0.515625,2 L 2.1875,-3 c -0.15625,0.390625 -0.296875,0.796875 -0.296875,1.234375 0,1.125 0.765625,2.015625 1.953125,2.015625 2.28125,0 3.171875,-3.625 3.171875,-3.796875 z M 6.8125,-15.46875 c 0,-0.359375 -0.296875,-0.8125 -0.84375,-0.8125 -0.5625,0 -1.203125,0.546875 -1.203125,1.1875 0,0.625 0.515625,0.8125 0.8125,0.8125 0.671875,0 1.234375,-0.640625 1.234375,-1.1875 z m 0,0"
               id="path111" />
          </g>
          <g
             id="use61"
             transform="translate(124.03589,41.09)">
            <path
               d="m 4.828125,0.09375 c 0,-1.4375 -0.46875,-2.5 -1.484375,-2.5 -0.796875,0 -1.1875,0.640625 -1.1875,1.1875 C 2.15625,-0.671875 2.53125,0 3.375,0 3.6875,0 3.96875,-0.09375 4.1875,-0.328125 4.234375,-0.375 4.265625,-0.375 4.28125,-0.375 c 0.0625,0 0.0625,0.34375 0.0625,0.46875 0,0.828125 -0.15625,2.4375 -1.59375,4.046875 C 2.484375,4.4375 2.484375,4.484375 2.484375,4.53125 c 0,0.125 0.125,0.25 0.234375,0.25 0.203125,0 2.109375,-1.828125 2.109375,-4.6875 z m 0,0"
               id="path115" />
          </g>
          <g
             id="use63"
             transform="translate(130.77798,41.09)">
            <path
               d="m 8.671875,-7.859375 c 0.09375,-0.390625 0.09375,-0.734375 0.09375,-0.84375 0,-1.4375 -1.0625,-2.21875 -2.171875,-2.21875 -2.5,0 -3.84375,3.609375 -3.84375,3.78125 0,0.125 0.09375,0.234375 0.25,0.234375 0.203125,0 0.21875,-0.109375 0.34375,-0.359375 1,-2.40625 2.234375,-3.171875 3.171875,-3.171875 0.515625,0 0.796875,0.28125 0.796875,1.140625 0,0.59375 -0.078125,0.84375 -0.171875,1.296875 L 4.78125,1.34375 c -0.46875,1.828125 -1.640625,3.21875 -3,3.21875 -0.09375,0 -0.609375,0 -1.09375,-0.25 0.59375,-0.125 1.078125,-0.59375 1.078125,-1.1875 0,-0.40625 -0.296875,-0.796875 -0.84375,-0.796875 -0.65625,0 -1.25,0.546875 -1.25,1.296875 0,1.015625 1.09375,1.4375 2.109375,1.4375 C 3.5,5.0625 5.75,3.796875 6.375,1.3125 Z M 9.6875,-15.46875 c 0,-0.609375 -0.515625,-0.8125 -0.8125,-0.8125 -0.671875,0 -1.25,0.640625 -1.25,1.1875 0,0.375 0.3125,0.8125 0.84375,0.8125 0.578125,0 1.21875,-0.53125 1.21875,-1.1875 z m 0,0"
               id="path119" />
          </g>
        </g>
      </g>
      <g
         fill="#000000"
         fill-opacity="1"
         id="g71"
         transform="matrix(0.352778,0,0,0.352778,-0.446484,0)">
        <g
           id="use69"
           transform="translate(142.214,41.09)">
          <path
             d="m 16.734375,-14.71875 c 0.265625,-0.125 0.46875,-0.25 0.46875,-0.546875 0,-0.265625 -0.203125,-0.5 -0.5,-0.5 -0.125,0 -0.34375,0.109375 -0.453125,0.15625 l -13.703125,6.46875 c -0.421875,0.1875 -0.484375,0.375 -0.484375,0.5625 0,0.234375 0.140625,0.40625 0.484375,0.546875 L 16.25,-1.59375 c 0.328125,0.1875 0.375,0.1875 0.453125,0.1875 0.265625,0 0.5,-0.234375 0.5,-0.5 0,-0.21875 -0.109375,-0.375 -0.53125,-0.578125 L 3.71875,-8.578125 Z m -0.40625,18.109375 c 0.421875,0 0.875,0 0.875,-0.484375 0,-0.5 -0.53125,-0.5 -0.890625,-0.5 H 2.953125 c -0.375,0 -0.890625,0 -0.890625,0.5 0,0.484375 0.4375,0.484375 0.859375,0.484375 z m 0,0"
             id="path123" />
        </g>
      </g>
      <g
         fill="#000000"
         fill-opacity="1"
         id="g75"
         transform="matrix(0.352778,0,0,0.352778,-0.446484,0)">
        <g
           id="use73"
           transform="translate(161.493,41.09)">
          <path
             d="M 5.109375,-7.265625 C 5.15625,-7.40625 5.78125,-8.65625 6.6875,-9.4375 c 0.640625,-0.59375 1.484375,-1 2.453125,-1 1,0 1.34375,0.75 1.34375,1.734375 0,1.421875 -1.015625,4.25 -1.515625,5.578125 C 8.75,-2.53125 8.625,-2.203125 8.625,-1.765625 c 0,1.125 0.765625,2.015625 1.953125,2.015625 2.3125,0 3.171875,-3.640625 3.171875,-3.796875 0,-0.125 -0.09375,-0.21875 -0.25,-0.21875 -0.21875,0 -0.234375,0.078125 -0.359375,0.5 C 12.5625,-1.234375 11.625,-0.25 10.65625,-0.25 c -0.25,0 -0.640625,-0.015625 -0.640625,-0.8125 0,-0.625 0.265625,-1.359375 0.421875,-1.71875 0.484375,-1.359375 1.53125,-4.125 1.53125,-5.546875 0,-1.484375 -0.859375,-2.59375 -2.75,-2.59375 -2.203125,0 -3.375,1.546875 -3.8125,2.171875 -0.078125,-1.40625 -1.09375,-2.171875 -2.1875,-2.171875 -0.796875,0 -1.328125,0.46875 -1.75,1.3125 -0.453125,0.890625 -0.796875,2.375 -0.796875,2.46875 0,0.109375 0.09375,0.234375 0.265625,0.234375 0.203125,0 0.234375,-0.03125 0.375,-0.609375 0.390625,-1.5 0.84375,-2.921875 1.828125,-2.921875 0.578125,0 0.78125,0.40625 0.78125,1.140625 0,0.546875 -0.25,1.515625 -0.421875,2.28125 L 2.796875,-4.34375 c -0.09375,0.484375 -0.375,1.59375 -0.5,2.046875 C 2.125,-1.65625 1.859375,-0.5 1.859375,-0.375 1.859375,-0.03125 2.125,0.25 2.5,0.25 c 0.296875,0 0.640625,-0.15625 0.84375,-0.515625 0.046875,-0.125 0.28125,-1 0.390625,-1.5 l 0.546875,-2.21875 z m 0,0"
             id="path127" />
        </g>
      </g>
      <g
         fill="#000000"
         fill-opacity="1"
         id="g79"
         transform="matrix(0.352778,0,0,0.352778,-0.446484,0)">
        <g
           id="use77"
           transform="translate(180.61,26.122)">
          <path
             d="m 5.71875,-16.578125 c 0.03125,-0.09375 0.078125,-0.25 0.078125,-0.375 0,-0.25 -0.25,-0.25 -0.296875,-0.25 -0.015625,0 -0.921875,0.07813 -1.359375,0.125 C 3.71875,-17.046875 3.34375,-17 2.90625,-16.96875 c -0.609375,0.04687 -0.78125,0.0625 -0.78125,0.515625 0,0.25 0.25,0.25 0.5,0.25 1.265625,0 1.265625,0.21875 1.265625,0.46875 0,0.171875 -0.203125,0.890625 -0.296875,1.34375 L 3,-12.015625 c -0.25,0.984375 -1.65625,6.609375 -1.765625,7.0625 -0.125,0.609375 -0.125,1.03125 -0.125,1.359375 0,2.53125 1.421875,3.84375 3.03125,3.84375 2.875,0 5.84375,-3.6875 5.84375,-7.28125 0,-2.28125 -1.28125,-3.890625 -3.140625,-3.890625 -1.296875,0 -2.453125,1.0625 -2.921875,1.546875 z M 4.15625,-0.25 C 3.375,-0.25 2.5,-0.84375 2.5,-2.78125 2.5,-3.59375 2.578125,-4.0625 3.015625,-5.796875 3.09375,-6.125 3.5,-7.703125 3.59375,-8.03125 3.640625,-8.234375 5.109375,-10.4375 6.796875,-10.4375 7.875,-10.4375 8.375,-9.34375 8.375,-8.046875 8.375,-6.859375 7.6875,-4.0625 7.0625,-2.78125 6.4375,-1.4375 5.296875,-0.25 4.15625,-0.25 Z m 0,0"
             id="path131" />
        </g>
      </g>
      <g
         fill="#000000"
         fill-opacity="1"
         id="g85"
         transform="matrix(0.352778,0,0,0.352778,-0.446484,0)">
        <g
           id="use81"
           transform="translate(190.929,33.834999)">
          <path
             d="m 7.015625,-3.546875 c 0,-0.125 -0.109375,-0.21875 -0.25,-0.21875 -0.21875,0 -0.25,0.078125 -0.375,0.5 C 5.75,-1.015625 4.734375,-0.25 3.921875,-0.25 c -0.296875,0 -0.65625,-0.078125 -0.65625,-0.8125 0,-0.671875 0.296875,-1.421875 0.578125,-2.15625 l 1.734375,-4.609375 c 0.078125,-0.203125 0.25,-0.640625 0.25,-1.125 0,-1.03125 -0.75,-1.96875 -1.96875,-1.96875 -2.265625,0 -3.1875,3.59375 -3.1875,3.78125 0,0.109375 0.09375,0.234375 0.265625,0.234375 0.234375,0 0.25,-0.109375 0.34375,-0.453125 0.609375,-2.078125 1.546875,-3.078125 2.515625,-3.078125 0.21875,0 0.640625,0.03125 0.640625,0.828125 0,0.640625 -0.328125,1.453125 -0.515625,2 L 2.1875,-3 c -0.15625,0.390625 -0.296875,0.796875 -0.296875,1.234375 0,1.125 0.765625,2.015625 1.953125,2.015625 2.28125,0 3.171875,-3.625 3.171875,-3.796875 z M 6.8125,-15.46875 c 0,-0.359375 -0.296875,-0.8125 -0.84375,-0.8125 -0.5625,0 -1.203125,0.546875 -1.203125,1.1875 0,0.625 0.515625,0.8125 0.8125,0.8125 0.671875,0 1.234375,-0.640625 1.234375,-1.1875 z m 0,0"
             id="path135" />
        </g>
        <g
           id="use83"
           transform="translate(199.20789,33.834999)">
          <path
             d="m 8.671875,-7.859375 c 0.09375,-0.390625 0.09375,-0.734375 0.09375,-0.84375 0,-1.4375 -1.0625,-2.21875 -2.171875,-2.21875 -2.5,0 -3.84375,3.609375 -3.84375,3.78125 0,0.125 0.09375,0.234375 0.25,0.234375 0.203125,0 0.21875,-0.109375 0.34375,-0.359375 1,-2.40625 2.234375,-3.171875 3.171875,-3.171875 0.515625,0 0.796875,0.28125 0.796875,1.140625 0,0.59375 -0.078125,0.84375 -0.171875,1.296875 L 4.78125,1.34375 c -0.46875,1.828125 -1.640625,3.21875 -3,3.21875 -0.09375,0 -0.609375,0 -1.09375,-0.25 0.59375,-0.125 1.078125,-0.59375 1.078125,-1.1875 0,-0.40625 -0.296875,-0.796875 -0.84375,-0.796875 -0.65625,0 -1.25,0.546875 -1.25,1.296875 0,1.015625 1.09375,1.4375 2.109375,1.4375 C 3.5,5.0625 5.75,3.796875 6.375,1.3125 Z M 9.6875,-15.46875 c 0,-0.609375 -0.515625,-0.8125 -0.8125,-0.8125 -0.671875,0 -1.25,0.640625 -1.25,1.1875 0,0.375 0.3125,0.8125 0.84375,0.8125 0.578125,0 1.21875,-0.53125 1.21875,-1.1875 z m 0,0"
             id="path139" />
        </g>
      </g>
    </g>
  </g>
</svg>
